HIERARCHY
ROOT Hips
{
 OFFSET 0.000000 0.000000 0.000000
 CHANNELS 6 Xposition Yposition Zposition Yrotation Xrotation Zrotation
 JOINT Chest
 {
  OFFSET 0.000000 9.588913 -0.003946
  CHANNELS 3 Yrotation Xrotation Zrotation
  JOINT Chest2
  {
   OFFSET 0.000000 9.541882 0.008053
   CHANNELS 3 Yrotation Xrotation Zrotation
   JOINT Chest3
   {
    OFFSET 0.000000 9.501360 0.000000
    CHANNELS 3 Yrotation Xrotation Zrotation
    JOINT Chest4
    {
     OFFSET 0.000000 9.491660 0.000000
     CHANNELS 3 Yrotation Xrotation Zrotation
     JOINT Neck
     {
      OFFSET 0.000000 14.331917 0.000000
      CHANNELS 3 Yrotation Xrotation Zrotation
      JOINT Head
      {
       OFFSET 0.000000 8.884799 0.017034
       CHANNELS 3 Yrotation Xrotation Zrotation
       End Site
       {
        OFFSET 0.000000 16.896195 0.008993
       }
      }
     }
     JOINT RightCollar
     {
      OFFSET -2.923010 9.499495 0.000000
      CHANNELS 3 Yrotation Xrotation Zrotation
      JOINT RightShoulder
      {
       OFFSET -13.795216 0.000000 0.000000
       CHANNELS 3 Yrotation Xrotation Zrotation
       JOINT RightElbow
       {
        OFFSET -30.272209 0.000000 0.000000
        CHANNELS 3 Yrotation Xrotation Zrotation
        JOINT RightWrist
        {
         OFFSET -24.478199 0.000000 0.000000
         CHANNELS 3 Yrotation Xrotation Zrotation
         End Site
         {
          OFFSET -18.090752 0.000000 0.000000
         }
        }
       }
      }
     }
     JOINT LeftCollar
     {
      OFFSET 2.923010 9.499495 0.000000
      CHANNELS 3 Yrotation Xrotation Zrotation
      JOINT LeftShoulder
      {
       OFFSET 13.795216 0.000000 0.000000
       CHANNELS 3 Yrotation Xrotation Zrotation
       JOINT LeftElbow
       {
        OFFSET 30.272209 0.000000 0.000000
        CHANNELS 3 Yrotation Xrotation Zrotation
        JOINT LeftWrist
        {
         OFFSET 24.478199 0.000000 0.000000
         CHANNELS 3 Yrotation Xrotation Zrotation
         End Site
         {
          OFFSET 18.090752 0.000000 0.000000
         }
        }
       }
      }
     }
    }
   }
  }
 }
 JOINT RightHip
 {
  OFFSET -7.826875 0.019532 0.001973
  CHANNELS 3 Yrotation Xrotation Zrotation
  JOINT RightKnee
  {
   OFFSET 0.000000 -40.546152 -0.001885
   CHANNELS 3 Yrotation Xrotation Zrotation
   JOINT RightAnkle
   {
    OFFSET 0.000000 -39.417092 -0.003189
    CHANNELS 3 Yrotation Xrotation Zrotation
    JOINT RightToe
    {
     OFFSET 0.000000 -7.579396 17.243563
     CHANNELS 3 Yrotation Xrotation Zrotation
     End Site
     {
      OFFSET 0.000000 -1.500329 6.694466
     }
    }
   }
  }
 }
 JOINT LeftHip
 {
  OFFSET 7.826875 0.019532 0.001973
  CHANNELS 3 Yrotation Xrotation Zrotation
  JOINT LeftKnee
  {
   OFFSET 0.000000 -40.546152 -0.001885
   CHANNELS 3 Yrotation Xrotation Zrotation
   JOINT LeftAnkle
   {
    OFFSET 0.000000 -39.417092 -0.003189
    CHANNELS 3 Yrotation Xrotation Zrotation
    JOINT LeftToe
    {
     OFFSET 0.000000 -7.579396 17.243563
     CHANNELS 3 Yrotation Xrotation Zrotation
     End Site
     {
      OFFSET 0.000000 -1.500329 6.694466
     }
    }
   }
  }
 }
}
MOTION
Frames: 8
Frame Time: 0.008333
20.557192 87.780548 2.762918 31.915470 -7.493221 -1.307070 1.698820 6.503236 1.972820 0.919314 3.739069 1.163888 1.161651 4.670825 1.465020 0.919323 3.739081 1.163874 11.967548 24.804354 -6.795512 15.367217 2.728187 -10.588424 9.572007 -0.505275 -6.318968 -2.255803 -32.775904 66.521491 82.536450 -31.984595 40.896519 21.384445 -8.628715 -26.419766 -17.371592 -5.592032 -4.037223 -0.237837 -34.246179 -89.124153 -31.867025 8.971417 -33.234187 -21.602333 -6.902418 10.965762 -3.750027 4.032296 -9.980455 3.655636 8.510825 0.495016 5.704109 -4.350053 9.995705 0.023197 -0.293322 -0.032565 18.755591 8.831831 13.427658 -4.115560 7.659390 1.248979 -2.199284 -11.320078 -9.884834 0.049847 0.066157 0.056162
20.744843 87.787518 2.752041 31.993294 -7.408838 -1.347481 1.692586 6.365157 1.822027 0.919110 3.657822 1.093864 1.160410 4.569451 1.377206 0.919118 3.657833 1.093852 12.152356 24.860007 -6.686269 15.564357 2.816533 -10.509164 9.391226 -0.533617 -6.244341 -2.613048 -32.292117 66.419375 82.876619 -32.629524 41.420548 20.621019 -8.997997 -25.551864 -17.234421 -5.591388 -4.141415 -0.078315 -33.321618 -89.497343 -31.933523 8.806868 -32.982434 -22.176286 -6.496098 10.673581 -3.908790 4.206337 -10.079753 3.587199 8.083891 0.459644 5.792156 -4.138630 10.150665 0.040791 -0.344557 -0.027665 18.687796 8.938373 13.339321 -4.076967 7.459284 1.256439 -2.210438 -11.324876 -9.795205 0.053169 0.102244 0.057411
20.928714 87.793087 2.741990 32.072245 -7.331699 -1.398501 1.690081 6.236408 1.688173 0.921449 3.582454 1.025466 1.162416 4.475414 1.291472 0.921458 3.582465 1.025456 12.323380 24.905163 -6.586647 15.747533 2.890786 -10.437471 9.193384 -0.589593 -6.180502 -3.045211 -31.831612 66.324646 83.198280 -33.324596 41.985158 19.706853 -9.419841 -24.624062 -17.090888 -5.592871 -4.213627 0.285800 -32.448809 -89.953673 -32.206850 8.842272 -32.989314 -22.524407 -6.025311 10.125812 -4.073203 4.375442 -10.168489 3.520555 7.683881 0.427407 5.883879 -3.966683 10.305360 0.053559 -0.370101 -0.025658 18.610112 9.047421 13.262246 -4.038428 7.260967 1.265869 -2.212836 -11.317152 -9.705612 0.053868 0.125919 0.055489
21.109857 87.797542 2.732095 32.148566 -7.265876 -1.448208 1.695511 6.119608 1.558964 0.928252 3.514235 0.959062 1.170073 4.390296 1.208298 0.928260 3.514246 0.959053 12.479728 24.939297 -6.496855 15.915605 2.950038 -10.373385 8.975336 -0.670693 -6.131825 -3.543339 -31.400523 66.250033 83.475786 -34.108181 42.608828 18.721613 -9.850545 -23.616142 -16.952626 -5.590965 -4.249338 0.887514 -31.634376 -90.496403 -32.621926 9.206197 -33.152874 -22.751327 -5.596408 9.804402 -4.237465 4.542952 -10.254389 3.455572 7.307510 0.395952 5.960176 -3.801467 10.459059 0.065533 -0.395079 -0.024898 18.526556 9.163560 13.187416 -4.006750 7.071978 1.273775 -2.204758 -11.314706 -9.614259 0.054260 0.149201 0.052040
21.287973 87.801183 2.722009 32.223439 -7.212437 -1.494249 1.707966 6.013328 1.434252 0.939209 3.452069 0.894545 1.182984 4.312730 1.127541 0.939217 3.452079 0.894537 12.623785 24.966169 -6.417233 16.071597 2.999478 -10.317967 8.739961 -0.762665 -6.098999 -4.102673 -31.014837 66.211687 83.693211 -34.987308 43.305397 17.720940 -10.282051 -22.584968 -16.809311 -5.579981 -4.253691 1.671571 -30.890689 -91.081929 -33.148521 10.073311 -33.362309 -22.925430 -5.293332 9.807112 -4.404715 4.709639 -10.332298 3.391926 6.957812 0.365459 5.984757 -3.643929 10.607868 0.071605 -0.413186 -0.026805 18.433094 9.286057 13.110101 -3.978876 6.897458 1.283795 -2.186314 -11.317388 -9.522864 0.053593 0.169950 0.047466
21.462341 87.804232 2.710735 32.301057 -7.166940 -1.535942 1.723561 5.912598 1.314309 0.952113 3.393225 0.832546 1.198385 4.239309 1.049960 0.952121 3.393235 0.832539 12.759030 24.992812 -6.348286 16.220011 3.048736 -10.272737 8.492181 -0.848878 -6.081794 -4.716884 -30.698581 66.211628 83.818229 -35.947739 44.093948 16.738944 -10.745053 -21.602384 -16.647756 -5.565486 -4.229025 2.510161 -30.218148 -91.631410 -33.729112 11.400299 -33.658078 -23.206536 -5.222071 10.034050 -4.582595 4.870173 -10.412714 3.331740 6.630832 0.339024 6.001715 -3.494240 10.750017 0.076262 -0.428935 -0.027822 18.320475 9.409200 13.025540 -3.950375 6.740696 1.297713 -2.157054 -11.324668 -9.432824 0.052154 0.187611 0.042554
21.632740 87.806999 2.697695 32.384474 -7.127800 -1.572649 1.738994 5.813403 1.198882 0.965079 3.335571 0.773436 1.213911 4.167371 0.975994 0.965087 3.335580 0.773430 12.889266 25.026880 -6.286873 16.364725 3.107825 -10.234957 8.239545 -0.916806 -6.077525 -5.379312 -30.475289 66.222632 83.799421 -36.994071 45.012846 15.815026 -11.253213 -20.705942 -16.472557 -5.547344 -4.181206 3.265359 -29.612734 -92.060101 -34.208586 12.770769 -34.091829 -23.613963 -5.338299 10.363262 -4.772634 5.021982 -10.502655 3.274935 6.325681 0.315548 6.047981 -3.353831 10.888186 0.083337 -0.447487 -0.026693 18.185571 9.529983 12.935125 -3.917678 6.602963 1.310096 -2.123106 -11.335295 -9.341870 0.050186 0.201451 0.038085
21.801126 87.809724 2.680959 32.471848 -7.092998 -1.589258 1.752406 5.714424 1.074417 0.976109 3.277878 0.716789 1.227057 4.095385 0.905089 0.976116 3.277885 0.716783 13.019853 25.073134 -6.230215 16.511667 3.183461 -10.202741 7.996967 -0.968985 -6.081946 -6.070773 -30.349927 66.198062 83.609447 -38.123241 46.067627 15.014250 -11.776898 -19.930897 -16.281710 -5.530673 -4.124709 3.798132 -29.066708 -92.295808 -34.436132 13.738593 -34.651140 -23.974348 -5.454773 10.665978 -4.970744 5.162893 -10.612669 3.222433 6.035765 0.289365 6.109689 -3.188787 11.024164 0.097576 -0.494819 -0.021690 18.032118 9.649743 12.822925 -3.878321 6.486457 1.321199 -2.092637 -11.363767 -9.249932 0.050396 0.224182 0.036060
